<?xml version="1.0"?>
<svg xmlns="http://www.w3.org/2000/svg" xmlns:xlink="http://www.w3.org/1999/xlink" version="1.1" id="Capa_1" x="0px" y="0px" viewBox="0 0 480 480" style="enable-background:new 0 0 480 480;" xml:space="preserve" width="512px" height="512px" class=""><g><g>
	<g>
		<path d="M424,368h-28.932l-70.983-63.885c35.41-32.957,37.398-88.379,4.441-123.789c-1.427-1.533-2.908-3.014-4.441-4.441    L395.068,112H424c30.928,0,56-25.072,56-56S454.928,0,424,0h-32c-30.915-0.013-55.987,25.038-56,55.953    c-0.01,24.137,15.453,45.563,38.364,53.157l-63.094,56.785c-14.098-9.07-30.507-13.894-47.27-13.896h-48    c-10.955,0.014-21.81,2.087-31.999,6.111l-71.363-51.9c27.757-13.581,39.25-47.092,25.669-74.849    C128.909,12.154,109.384-0.018,88,0H56C25.072,0,0,25.072,0,56s25.072,56,56,56h32c1.705,0,3.384-0.106,5.051-0.256l75.014,54.556    c-40.703,26.374-52.32,80.751-25.946,121.454c6.725,10.379,15.567,19.221,25.946,25.946l-75.014,54.556    C91.384,368.106,89.705,368,88,368H56c-30.928,0-56,25.072-56,56c0,30.928,25.072,56,56,56h32    c30.901,0.026,55.973-25.003,56-55.904c0.018-21.384-12.154-40.909-31.362-50.307l71.363-51.9    c10.189,4.024,21.044,6.098,31.999,6.111h48c16.763-0.002,33.172-4.825,47.27-13.896l63.094,56.785    c-29.345,9.727-45.248,41.401-35.521,70.746C346.437,464.547,367.863,480.01,392,480h32c30.928,0,56-25.072,56-56    C480,393.072,454.928,368,424,368z M352,56c0.026-22.081,17.919-39.974,40-40h32c22.091,0,40,17.909,40,40s-17.909,40-40,40h-32    C369.919,95.974,352.026,78.081,352,56z M88,96H56c-22.091,0-40-17.909-40-40s17.909-40,40-40h32c22.091,0,40,17.909,40,40    S110.091,96,88,96z M128,424c-0.026,22.081-17.919,39.974-40,40H56c-22.091,0-40-17.909-40-40c0-22.091,17.909-40,40-40h32    C110.081,384.026,127.974,401.919,128,424z M264,312h-48c-39.764,0-72-32.236-72-72c0-39.765,32.236-72,72-72h48    c39.747,0.043,71.957,32.253,72,72C335.957,279.747,303.747,311.957,264,312z M424,464h-32c-22.091,0-40-17.909-40-40    c0-22.091,17.909-40,40-40h32c22.091,0,40,17.909,40,40C464,446.091,446.091,464,424,464z" data-original="#000000" class="active-path" data-old_color="#000000" fill="#FFFFFF"/>
	</g>
</g><g>
	<g>
		<rect x="200" y="184" width="88" height="16" data-original="#000000" class="active-path" data-old_color="#000000" fill="#FFFFFF"/>
	</g>
</g><g>
	<g>
		<rect x="168" y="216" width="144" height="16" data-original="#000000" class="active-path" data-old_color="#000000" fill="#FFFFFF"/>
	</g>
</g><g>
	<g>
		<rect x="168" y="248" width="80" height="16" data-original="#000000" class="active-path" data-old_color="#000000" fill="#FFFFFF"/>
	</g>
</g><g>
	<g>
		<rect x="280" y="248" width="32" height="16" data-original="#000000" class="active-path" data-old_color="#000000" fill="#FFFFFF"/>
	</g>
</g><g>
	<g>
		<rect x="192" y="280" width="88" height="16" data-original="#000000" class="active-path" data-old_color="#000000" fill="#FFFFFF"/>
	</g>
</g><g>
	<g>
		<rect x="40" y="48" width="64" height="16" data-original="#000000" class="active-path" data-old_color="#000000" fill="#FFFFFF"/>
	</g>
</g><g>
	<g>
		<rect x="368" y="48" width="48" height="16" data-original="#000000" class="active-path" data-old_color="#000000" fill="#FFFFFF"/>
	</g>
</g><g>
	<g>
		<rect x="432" y="48" width="16" height="16" data-original="#000000" class="active-path" data-old_color="#000000" fill="#FFFFFF"/>
	</g>
</g><g>
	<g>
		<rect x="32" y="416" width="32" height="16" data-original="#000000" class="active-path" data-old_color="#000000" fill="#FFFFFF"/>
	</g>
</g><g>
	<g>
		<rect x="80" y="416" width="32" height="16" data-original="#000000" class="active-path" data-old_color="#000000" fill="#FFFFFF"/>
	</g>
</g><g>
	<g>
		<rect x="368" y="416" width="48" height="16" data-original="#000000" class="active-path" data-old_color="#000000" fill="#FFFFFF"/>
	</g>
</g><g>
	<g>
		<rect x="432" y="416" width="16" height="16" data-original="#000000" class="active-path" data-old_color="#000000" fill="#FFFFFF"/>
	</g>
</g></g> </svg>
